<svg 
 xmlns="http://www.w3.org/2000/svg"
 xmlns:xlink="http://www.w3.org/1999/xlink"
 width="640px" height="720px">
<path fill="#FFFFFF"
 d="M640.000,720.000 L559.000,720.000 L391.432,429.801 L293.000,600.000 L213.000,600.000 L518.633,70.000 L317.474,70.000 C285.142,125.845 248.000,190.000 248.000,190.000 L138.000,0.000 L219.000,0.000 L277.000,0.000 L358.000,0.000 L559.000,0.000 L640.000,0.000 L431.886,359.850 L640.000,720.000 ZM347.000,120.000 L427.000,120.000 L121.367,650.000 L322.526,650.000 L392.000,530.000 L502.000,720.000 L421.000,720.000 L363.000,720.000 L282.000,720.000 L81.000,720.000 L0.000,720.000 L208.114,360.150 L0.000,0.000 L81.000,0.000 L248.568,290.199 L347.000,120.000 Z"/>
</svg>