<?xml version="1.0" encoding="utf-8"?>
<!-- Svg Vector Icons : http://www.onlinewebfonts.com/icon -->
<!DOCTYPE svg PUBLIC "-//W3C//DTD SVG 1.1//EN" "http://www.w3.org/Graphics/SVG/1.1/DTD/svg11.dtd">
<svg version="1.1" xmlns="http://www.w3.org/2000/svg" xmlns:xlink="http://www.w3.org/1999/xlink" x="0px" y="0px" viewBox="0 0 1000 1000" enable-background="new 0 0 1000 1000" xml:space="preserve">
<metadata> Svg Vector Icons : http://www.onlinewebfonts.com/icon </metadata>
<g><g transform="matrix(1 0 0 -1 0 1952)"><path fill="#fff" d="M493.9,1821.7l-174.1,109.5L10,1758.1l129.9-140.9L493.9,1821.7z M493.9,1411l-354.1,204.4L12.2,1455.4l333.2-209.1L493.9,1411z M497.6,1411l153.8-163.7l338.5,203.8l-138.3,164.3L497.6,1411z M656,1184.1l-160.3,163.9l-146.3-164.4l-204.5,134.7v-127.8l354-217.7l357.2,214.6l-0.5,130.9L656,1184.1z M990,1758.1l-318.3,173.1l-174.1-109.6l354-204.4L990,1758.1z"/></g></g>
</svg>